
<svg fill="#FFF" height="633.48" width="633.48" xmlns="http://www.w3.org/2000/svg">
  <path d="M317.48 19h-.071c4.238 0 8.559.023 12.848.186 47.432 2.739 93.256 16.333 136.22 40.472 62.841 36.933 107.911 91.172 130.37 156.921 7.137 24.287 13.646 48.002 15.131 71.219l.02.297.027.299c1.07 11.359 1.49 22.945 1.25 34.437l-.006.287.003.288c.284 37.211-7.385 74.045-22.789 109.477-14.866 34.188-36.122 65.349-63.184 92.616-27.121 27.327-59.679 49.817-94.161 65.036-36.167 15.966-73.793 24.062-111.834 24.062-8.451 0-16.993-.413-25.393-1.229-5.441-.608-11.042-1.519-16.967-2.482-7.165-1.163-14.568-2.366-22.611-3.2-22.121-3.996-41.946-11.927-62.926-20.316-12.164-4.867-23.791-11.106-36.586-19.637-38.144-25.43-64.422-51.264-87.84-86.364-15.361-23.753-25.732-44.872-33.609-68.425-11.312-37.238-16.056-67.488-14.899-95.181l.008-.419v-.419c0-3.848-.086-7.632-.178-11.292-.248-9.942-.479-19.33 1.239-27.915l.036-.174.035-.173c.756-4.174 1.415-8.309 2.053-12.306 1.786-11.226 3.472-21.83 7.128-31.885l.095-.256.085-.257c4.281-12.842 8.323-24.972 13.657-36.971 17.863-39.848 42.411-73.236 75.039-102.054 3.95-3.081 7.749-6.142 11.428-9.104 8.235-6.633 16.016-12.898 24.173-18.346 22.882-14.793 45.526-25.469 71.248-33.592l.036-.011.038.168c28.395-9.086 58.786-13.635 90.655-13.635m.161-20.378c-32.779 0-65.42 4.561-96.957 14.652-27.331 8.631-51.785 20.139-76.24 35.963-12.947 8.632-24.455 18.701-37.401 28.771-35.964 31.647-61.856 67.61-80.558 109.328-5.754 12.947-10.069 25.893-14.385 38.84-5.754 15.824-7.192 31.648-10.07 47.472C-1.078 288.154.36 302.54.36 316.925c-1.438 34.525 5.754 69.049 15.823 102.135 8.631 25.894 20.14 48.909 35.964 73.364 25.893 38.84 54.663 66.172 93.502 92.065 12.947 8.631 25.895 15.824 40.28 21.578 21.577 8.632 43.155 17.263 67.61 21.577 14.385 1.439 27.331 4.316 40.277 5.755 9.215.898 18.367 1.337 27.486 1.337 166.059 0 313.374-145.665 312.105-311.484.26-12.399-.195-24.662-1.334-36.748-1.644-25.682-8.835-51.576-16.028-76.031-24.454-71.926-73.364-129.467-139.536-168.307C430.478 16.273 381.567 1.888 331.22-.989c-4.606-.177-9.208-.267-13.811-.267z"/>
  <path d="M554.19 119.847c2.877 11.508 12.947 20.139 24.455 20.139.829-.138 1.588-.361 2.314-.626a298.6406 298.6406 0 0 0-7.812-11.112c-6.841 2.349-15.144-.776-18.957-8.401zM587.276 204.72c8.633-2.877 11.51-11.508 10.203-20.53-1.193-10.648-8.054-20.333-16.175-23.917 8.849 8.484 11.726 22.87 3.095 31.5-6.607 3.965-16.838.633-19.574-6.627 3.329 10.797 11.613 20.928 22.451 19.574zM564.825 185.146c-.207-.667-.398-1.336-.564-2.004.116.701.32 1.362.564 2.004zM630.346 270.306c-.236-1.622-.488-3.244-.756-4.864-.94-.612-1.921-1.123-2.937-1.496 1.528 1.853 2.765 4.023 3.693 6.36zM623.24 298.224c-5.754 2.877-12.947-1.438-15.824-7.192 0 5.754 4.316 11.508 7.192 15.824 5.872 5.872 13.66 4.069 18.672-1.488-.219-6.33-.617-12.621-1.205-18.863-.025-.415-.066-.831-.094-1.244-.951 5.563-3.766 10.474-8.741 12.963zM604.539 223.42c0 4.315 2.877 5.754 4.315 10.069 2.643 6.167 9.597 9.626 15.916 8.748-.903-3.696-1.855-7.376-2.84-11.037-2.073.839-3.48.85-5.884.85-5.753-1.437-8.63-4.314-11.507-8.63zM588.79 226.96c3.768 4.109 6.43 10.234 6.826 16.912.678 11.332-5.268 20.21-13.249 19.711-4.701-.292-9.11-3.914-12.097-9.299 2.334 11.252 9.419 19.881 17.325 20.225 9.212.4 16.198-10.013 15.527-23.129-.576-11.249-6.709-21.149-14.332-24.42zM591.815 297.492c3.406 3.839 5.566 9.865 5.436 16.642-.22 11.509-6.902 21.179-14.884 21.677-4.701.293-8.81-2.785-11.319-7.844 1.324 11.053 7.705 18.748 15.66 18.127 9.27-.725 17.113-11.936 17.438-25.177.276-11.36-5.053-20.893-12.331-23.425zM626.786 331.299c2.207 2.888 3.646 5.765 5.084 10.08 1.439 12.947-4.315 28.771-20.138 25.894-2.878-1.438-4.316-4.315-5.755-7.192 0 5.754 2.877 10.069 7.192 14.385 4.906 4.906 10.854 2.488 16.069-1.004a282.3778 282.3778 0 0 0 3.963-37.954c-1.821-2.039-3.999-3.513-6.415-4.209zM589.131 368.156c3.181 3.34 4.944 8.934 4.341 15.439-1.023 11.048-8.555 20.865-16.825 22.147-4.872.757-8.892-1.677-11.106-6.126.582 10.149 6.67 16.633 14.954 15.304 9.653-1.546 18.447-12.835 19.63-25.544 1.012-10.903-3.761-19.578-10.994-21.22zM623.733 398.484c.068-.253.139-.507.205-.762-.324-.095-.651-.193-.986-.262.288.325.524.684.781 1.024zM600.224 426.252c0 4.315 1.438 8.631 2.877 11.508 1.824 1.825 3.715 3.002 5.627 3.646 1.285-2.939 2.523-5.9 3.715-8.882-4.551.757-10.995-.141-12.219-6.272zM581.849 435.146c3.182 2.85 4.812 7.898 3.973 13.943-1.425 10.26-9.595 19.658-18.315 21.242-5.137.933-9.281-1.041-11.47-4.908.35 9.079 6.609 14.641 15.373 13.098 10.213-1.795 19.709-12.586 21.283-24.46 1.349-10.184-3.343-17.93-10.844-18.915zM545.844 525.157c.21 2.856 1.148 5.345 2.646 7.354.99-1.058 1.967-2.127 2.941-3.197-2.35-.783-4.279-2.206-5.587-4.157zM575.293 499.896c.444-.617.891-1.232 1.329-1.852a13.3304 13.3304 0 0 0-3.889-.993c1.009.767 1.858 1.738 2.56 2.845zM469.073 54.69c-6.073-.995-12.025-4.312-16.207-8.61 3.81 8.458 13.782 16.023 24.021 17.778 9.878 1.692 16.885-2.729 17.939-10.164-3.391-2.284-6.842-4.505-10.336-6.682-1.417 5.703-7.335 9.002-15.417 7.678zM398.831 14.834c8.631 12.947 27.332 21.578 41.717 11.508.446-.447.803-.896 1.121-1.35-4.453-1.896-8.932-3.66-13.428-5.352-2.295 1.494-5.062 2.386-7.832 2.386-8.633.001-15.824-2.876-21.578-7.192zM552.751 158.687c2.877-4.315 1.439-8.631 1.411-13.508-1.689-10.43-9.398-20.155-18.317-24.031 5.399 5.892 9.715 11.646 9.715 20.277 0 7.193-5.755 12.947-14.386 11.508-7.192-1.438-10.069-5.754-14.384-10.07 4.314 12.947 23.015 30.209 35.961 15.824zM441.986 104.023c10.069 7.193 15.823 25.894 1.438 31.647-7.191 1.438-12.946-1.438-20.138-2.877-2.877-1.438-5.756-4.315-7.193-7.193 5.754 15.824 24.455 25.894 40.278 20.139 2.877-1.438 5.754-4.315 7.192-8.631 0-2.877 0-5.754.137-8.982-1.748-10.026-10.033-19.285-20.104-23.574-.172-.529-1.61-.529-1.61-.529zM525.42 91.077c-7.192 0-15.823-2.877-20.138-10.07 4.314 12.947 17.261 23.016 30.208 20.139 4.163-.833 6.392-4.08 7.454-7.964-3.02-3.011-6.104-5.965-9.256-8.863-1.334 3.388-4.132 6.068-8.268 6.758zM488.358 122.699c12.04 2.257 19.59-5.568 17.354-17.055-1.919-9.856-10.405-19.15-20.239-22.943 5.041 3.922 8.864 9.425 9.996 15.157 1.918 9.729-4.728 16.266-15.174 14.336-6.159-1.139-12.311-4.966-16.712-9.921 4.128 9.76 14.449 18.49 24.775 20.426zM441.986 83.884c5.754-1.438 14.385-8.631 10.547-15.797-1.583-8.364-9.448-16.303-19.063-19.969-.115-.197-1.553-.197-1.553-.197 4.315 4.315 8.631 7.192 10.069 12.947 2.877 8.63-5.754 14.385-12.946 14.385-8.631 0-15.824-2.878-23.018-8.631 7.194 11.508 21.579 18.7 35.964 17.262zM507.135 161.853c1.79 11.32-4.998 19.417-15.472 17.741-6.174-.988-12.33-5.249-16.717-11 3.988 11.562 14.192 21.413 24.485 22.984 11.999 1.833 19.743-7.847 17.731-21.112-1.727-11.381-10.105-21.876-19.924-26.01 5.045 4.434 8.844 10.729 9.897 17.397zM548.437 299.662c-7.192 2.877-12.946-4.315-17.263-8.631 2.877 10.069 11.509 23.016 23.017 18.701 10.07-2.877 14.385-14.385 13.574-24.569-.205-12.127-6.424-22.607-14.525-25.824 11.021 10.114 9.581 33.131-4.803 40.323zM461.996 253.594c-1.31.036-1.31-1.403-2.748-1.403 15.823 11.508 12.946 35.963-2.877 46.033-4.315 2.877-8.631 1.438-12.947 1.438-7.191-1.438-11.507-5.754-14.384-11.509 1.438 15.824 15.823 27.333 31.646 24.456 7.193-1.438 13.396-6.15 16.4-13.292 2.547-6.062 2.957-10.251 2.808-16.527-.268-13.215-7.729-24.718-17.898-29.196zM546.396 186.613c7.794 9.475 14.985 31.053-2.275 36.807-7.193 1.438-12.947-4.315-17.262-10.07 2.877 14.385 21.577 30.209 33.085 15.824 4.316-5.754 2.877-11.508 3.398-16.856-1.261-11.431-8.407-21.86-16.946-25.705zM499.313 257.957c-6.127-.411-12.002-4.632-16-10.852 3.117 12.968 12.572 23.002 22.766 23.494 11.885.574 20.439-11.21 19.42-26.058-.873-12.737-8.557-24.035-18.118-27.951 4.787 4.716 8.191 11.668 8.774 19.226.99 12.829-6.447 22.837-16.842 22.141zM424.724 200.404c4.316 18.701 27.332 33.085 43.156 20.139 5.754-5.754 8.631-12.947 6.417-20.882-1.427-11.813-9.663-22.595-19.981-27.336-.821-.691-.821-.691-2.26-.691 10.069 7.192 14.385 18.701 10.069 30.209-7.192 15.823-28.771 11.508-37.401-1.439zM499.313 341.438c-6.127.41-11.605-3.085-14.984-8.908 1.797 12.737 10.278 21.467 20.496 20.589 11.91-1.023 21.738-13.96 22.23-29.109.422-12.997-6.146-23.936-15.349-26.861 4.335 4.432 7.048 11.37 6.854 19.167-.325 13.233-8.852 24.426-19.247 25.122zM528.297 368.711c1.439 5.754 2.877 11.509 8.631 15.824 12.946 7.192 21.579-5.754 27.333-15.824 1.438-2.877 1.438-7.193 1.564-9.643.781-11.9-4.514-21.541-12.361-23.68 9.357 11.744 6.48 29.007-5.027 37.638-2.877 1.438-7.192 4.315-11.509 2.877-2.877-1.438-7.192-2.877-8.631-7.192zM477.345 413.471c.865 10.992 8.73 17.779 19.049 16.026 12.027-2.045 22.888-14.598 24.629-28.522 1.494-11.944-4.15-21.377-13.163-22.964 3.955 3.626 6.06 9.779 5.2 16.958-1.46 12.184-10.923 23.154-21.396 24.832-6.175.989-11.386-1.538-14.319-6.33zM447.74 387.412c-2.877 1.438-7.192 0-10.069 0-5.754-1.438-8.631-4.315-11.508-8.631 0 21.578 25.893 25.893 38.839 14.385 7.192-7.192 11.509-14.385 12.374-24.887.934-12.732-5.402-23.217-15.183-26.5-.068-.4-1.507-.4-1.507-.4 11.508 11.508 8.631 28.771-1.438 38.841-2.877 2.877-7.192 5.754-11.508 7.192zM536.538 474.423c3.395 2.547 5.025 7.282 3.976 13.075-1.782 9.838-10.759 19.09-20.251 20.906-5.593 1.072-10.128-.635-12.531-4.186.354 7.959 6.383 12.857 15.001 11.963a21.739 21.739 0 0 0 1.744-.252c10.944-2.03 21.276-12.658 23.28-24.055 1.72-9.776-3.094-16.931-11.219-17.451zM444.095 491.998c-.671.426-2.108.426-2.108.426 2.877 1.439 4.314 2.877 5.754 4.316 2.877 12.946-7.192 23.016-18.7 27.332-2.877 1.438-7.193 1.438-10.07 1.438-4.314-1.438-7.193-2.877-10.07-5.754 2.877 14.385 18.701 15.824 30.21 10.07 5.754-2.877 11.508-7.193 14.385-12.947 1.438-2.877 1.438-5.754 3.3-7.944 1.697-8.941-3.618-15.692-12.701-16.937zM546.966 408.477c11.541 12.021.032 29.283-11.476 36.477-5.754 2.877-12.947 2.877-15.823-4.316-1.439 7.193 2.876 11.509 7.192 14.386 7.191 2.877 15.823-1.438 21.577-7.192 4.314-5.754 8.631-11.508 9.677-18.998 1.531-10.949-3.26-19.258-11.147-20.357zM497.954 450.791c3.799 2.797 5.635 7.918 4.502 14.113-1.923 10.52-11.713 20.367-22.16 22.299-6.159 1.139-11.242-.717-14.008-4.547.604 9.071 8.242 14.395 18.553 12.468 12.021-2.246 23.234-13.524 25.471-25.619 1.916-10.378-3.361-18.081-12.358-18.714zM417.53 457.899c4.316 17.263 27.333 18.7 37.402 8.631 2.877-4.315 8.631-5.754 10.069-11.508 1.438-2.877 1.438-7.192 3.12-10.08 1.66-10.903-3.93-19.359-13.35-21.34.16-.228-1.278-.228-1.278-.228 11.508 11.508 2.877 31.647-10.07 37.401-4.314 1.438-8.63 4.315-14.384 2.877-4.315-1.437-8.63-1.437-11.509-5.753zM486.183 513.135c3.803 2.293 5.665 6.657 4.602 12.055-1.808 9.162-11.406 17.828-21.711 19.516-6.073.994-11.1-.604-13.875-3.888.771 7.818 8.402 12.499 18.605 10.866 11.898-1.907 22.906-11.909 24.977-22.561 1.777-9.141-3.579-15.687-12.598-15.988zM525.694 533.354c5.676 5.421 4.84 13.795 1.015 20.414 3.8-3.387 7.525-6.857 11.167-10.414-1.295-5.777-5.842-9.618-12.182-10zM496.649 560.035c.998 5.985 4.42 9.545 8.821 11.168 3.333-2.512 6.607-5.099 9.844-7.732-2.99.857-6.187.879-10.032.879-2.879 0-5.756-2.877-8.633-4.315zM475.722 567.924c13.736 9.373-2.088 29.513-15.035 29.513-5.754 0-10.069 1.438-14.386-4.316 1.702 4.685 4.799 7.719 8.567 9.423 11.894-5.936 23.411-12.611 34.486-19.961.777-8.278-4.859-14.175-13.632-14.659zM433.893 548.848c-.538-.321-1.976-.321-1.976-.321 5.754 1.438 5.754 5.754 5.754 11.509-1.438 11.508-11.508 15.824-21.578 17.262-5.754 0-11.508 0-15.824-4.316 4.316 14.386 21.578 12.947 31.648 8.632 7.192-4.315 11.507-10.069 14.648-17.854 1.414-7.967-3.9-13.838-12.672-14.912zM425.935 599.637c-.377-.28-.771-.543-1.211-.762 0 0 1.396 1.395 1.211.762zM396.016 624.861c.563-.152 1.133-.293 1.698-.445-1.129-.707-2.205-1.531-3.199-2.525.441 1.06.943 2.048 1.501 2.97z"/>
  <path d="M425.934 599.621c.003.008-.001.008.001.016 2.096 1.562 3.324 3.992 4.543 6.431.352 2.806-.079 5.437-1.057 7.836 3.158-1.241 6.291-2.553 9.406-3.896-1.311-5.43-6.148-9.329-12.893-10.387zM374.722 50.632c13.854 1.091 23.734-5.829 22.427-15.438-1.122-8.242-9.749-15.669-20.423-18.219 5.188 2.996 8.84 7.438 9.419 12.227.983 8.126-7.621 14.038-19.424 13.211-6.955-.486-13.36-3.148-17.532-6.892 3.128 7.784 13.65 14.174 25.533 15.111zM392.979 82.246c1.249 9.439-7.929 16.4-20.785 15.38-7.577-.603-14.617-3.801-19.229-8.271 3.513 9.305 15.103 17.038 28.021 18.165 15.061 1.312 25.554-6.956 23.922-18.173-1.399-9.621-10.831-18.197-22.359-21.234 5.653 3.459 9.694 8.573 10.43 14.133zM395.952 160.125c-11.508 10.07-28.77 7.193-38.839-4.315 7.191 23.017 40.278 33.086 54.663 11.509 2.879-4.315 1.439-8.632 1.959-12.379-1.424-11.968-11.568-22.43-24.039-26.058 10.573 8.227 16.326 24.051 6.256 31.243zM368.621 247.875c-2.877-1.438-4.316-4.315-7.192-7.192 4.315 18.701 25.893 31.648 44.594 23.016 6.395-3.195 9.309-7.174 12.947-12.947 2.357-3.536 3.4-9.428 2.094-14.703-.855-14.438-11.162-26.874-24.36-30.84 10.759 9.58 15.073 25.404 6.442 38.351-8.631 11.508-23.017 10.07-34.525 4.315zM400.103 296.751c6.261 5.13 10.212 13.181 10.047 22.202-.141 7.654-3.199 14.65-8.064 19.795-4.867 5.145-11.553 8.443-18.953 8.686-8.721.287-16.576-3.849-21.531-10.527 3.041 14.402 15.383 24.564 29.944 23.924 8.487-.374 16.126-4.23 21.692-10.162 5.567-5.932 9.096-13.954 9.316-22.737.378-15.072-9.154-27.798-22.451-31.181zM358.375 425.393c2.475 11.738 13.745 19.603 27.466 18.508 8-.639 15.407-4.174 21.004-9.418 5.596-5.244 9.416-12.23 10.164-19.82 1.285-13.022-7.166-23.654-19.945-25.767 5.787 4.187 9.128 11.075 8.443 18.878-1.161 13.242-13.18 24.508-27.162 25.523-8.238.599-15.498-2.54-19.97-7.904zM379.006 510c14.686-1.265 27.628-11.822 29.321-23.92 1.453-10.381-6.236-18.562-18.167-19.788 5.312 3.14 8.278 8.509 7.497 14.724-1.326 10.547-12.606 19.734-25.463 20.756-7.577.602-14.186-1.771-18.231-5.917 2.195 9.162 12.446 15.231 25.043 14.145zM382.96 527.876c4.918 2.49 7.693 6.833 7.023 11.944-1.134 8.682-11.46 16.335-23.263 17.162-6.955.486-13.015-1.499-16.73-4.936 2.067 7.615 11.511 12.756 23.122 11.893 13.535-1.002 25.421-9.897 26.864-19.95 1.236-8.624-5.969-15.228-17.016-16.113zM377.038 579.412c4.629 2.256 7.319 6.16 6.831 10.803-.832 7.883-10.296 14.821-21.286 15.396-6.475.34-12.135-1.595-15.627-4.818 2.036 7.117 10.922 12.137 21.785 11.553 12.666-.682 23.594-8.855 24.639-18.09.896-7.925-6.032-13.933-16.342-14.844zM375.624 629.539c.919-.176 1.831-.377 2.746-.562-1.691-.637-3.528-1.102-5.49-1.35a15.227 15.227 0 0 1 2.744 1.912zM306.765 16.273c-4.316-1.438-8.631-1.438-11.508-5.754 7.191 14.385 31.646 17.262 43.156 7.192 1.438-2.877 5.754-5.754 4.162-10.408-.135-2.763-1.26-5.384-3.11-7.703-2.447-.201-4.899-.379-7.354-.525.346.815.549 1.738.549 2.812-1.44 12.947-15.825 15.824-25.895 14.386zM263.134 49.627c14.043-.828 25.877-9.082 26.248-18.457.318-8.042-7.458-14.378-18.069-15.659 4.83 2.377 7.845 6.368 7.575 11.075-.458 7.989-10.544 15.066-22.393 15.827-6.979.45-12.846-1.406-16.262-4.683 1.616 7.536 10.854 12.608 22.901 11.897zM317.7 137.6c.871.06 1.756.1 2.645.117 16.6.323 29.346-9.888 28.613-22.303-.627-10.651-10.346-19.43-22.813-21.9 5.894 3.388 9.858 8.736 10.104 14.885.421 10.435-10.588 19.04-24.643 18.99-8.283-.028-15.557-3.037-20.02-7.688 2.569 9.565 13.029 16.977 26.114 17.899zM334.097 72.375c4.316-1.438 7.193-5.753 10.07-8.63 1.438-1.438 1.438-4.315 1.208-6.885-.516-8.502-9.296-15.759-20.595-17.806 15.071 8.867 7.879 27.568-7.945 27.568-8.631 0-17.264 1.438-23.018-5.754 7.194 14.385 27.332 17.262 40.28 11.507zM258.202 106.306c15.381-1.005 28.471-10.992 28.945-22.054.411-9.488-8.033-16.724-19.58-18.091 5.226 2.658 8.463 7.214 8.115 12.718-.593 9.339-11.729 17.804-24.66 18.747-7.619.556-13.947-1.633-17.576-5.496 1.61 8.941 11.561 15.038 24.756 14.176zM262.906 126.654c12.211 9.016 10.772 23.401.703 32.032-8.631 7.193-17.263 10.07-27.333 7.193-2.875-1.439-7.191-2.877-10.068-7.193 4.314 23.017 34.524 23.017 48.909 10.07 4.315-5.754 8.631-11.509 9.384-19.224.441-11.99-8.88-21.117-21.595-22.878zM305.325 299.662c-7.191-1.438-12.945-5.754-17.262-11.509 4.316 20.14 28.771 33.087 48.91 23.017 4.316-2.877 8.632-5.754 11.509-10.07 4.315-5.754 7.2-13.216 7.391-20.969 0-7.192-1.637-14.995-8.313-20.525-4.647-5.745-11.131-9.945-18.538-11.72 10.83 7.182 15.146 23.004 9.392 34.513-5.755 12.948-18.702 20.14-33.089 17.263zM289.856 195.74c-.113-.365-.253-.718-.354-1.09.099.391.22.75.354 1.09zM326.903 217.666c10.07-2.877 18.702-7.192 23.018-15.823 1.438-4.316 4.315-8.631 2.836-12.862-.584-13.327-11.247-24.461-25.034-27.54 10.69 7.316 15.005 20.263 7.813 31.771-7.193 11.508-23.018 15.824-34.525 10.07-4.023-2.682-9.292-2.869-11.154-7.541 4.738 15.182 20.191 24.735 37.046 21.925zM240.081 251.962c-8.793.273-16.211-3.687-20.648-9.978 2.539 13.868 14.404 24.137 29.547 23.822 8.824-.183 17.043-4.026 23.098-10.056 6.052-6.031 9.898-14.207 10.066-22.974.291-15.04-10.021-26.829-23.922-29.369 6.316 4.406 10.299 11.775 10.037 20.512-.225 7.417-3.527 14.311-8.653 19.413-5.126 5.101-12.06 8.397-19.525 8.63zM265.048 358.641c5.755-2.877 10.069-8.631 12.946-14.385 1.438-4.315 4.315-10.069 4.315-14.385-1.438-7.193-2.877-15.824-8.162-21.436-4.607-5.79-11.011-10.019-18.283-11.754 16.376 13.051 13.499 40.382-5.201 49.014-5.754 2.877-10.07 1.438-15.824 1.438-7.193-1.438-12.947-5.754-15.824-11.508 4.316 20.139 27.332 33.086 46.033 23.016zM331.22 406.113c7.193-2.877 14.386-7.193 18.701-15.824 2.877-5.754 4.315-11.508 4.315-18.701 0-5.754-4.315-10.07-7.007-14.955-4.437-5.437-10.78-9.412-18.158-11.027 12.219 10.158 15.096 25.982 6.465 37.491-4.316 5.754-11.508 10.069-18.701 11.508-5.756 0-11.51 1.438-15.824-1.438-4.316-2.877-8.631-4.315-11.509-8.631 5.755 17.261 24.456 27.331 41.718 21.577zM270.803 442.076c2.876-1.439 7.191-4.316 8.63-7.193 2.266-3.533 3.897-9.103 4.043-15.343-.409-13.274-11.326-25.286-25.5-28.911 11.388 6.854 15.703 21.238 8.511 32.746-10.069 15.824-31.647 11.508-43.155 0 8.63 17.262 28.769 27.332 47.471 18.701zM316.937 540.699c.764.045 1.535.064 2.316.05 14.54-.269 26.787-9.001 27.455-19.771.573-9.24-8.122-17.008-20.469-18.833 5.702 3.134 9.221 8.116 8.99 13.638-.393 9.373-10.948 16.91-23.62 16.953-7.47.025-14.163-2.58-18.495-6.603 2.838 7.908 12.361 13.875 23.823 14.566zM336.974 478.039c7.193-4.315 12.947-11.509 13.501-20.515.632-11.935-8.99-21.935-22.656-24.36 17.787 10.35 9.155 33.366-6.669 37.683-4.409 1.385-10.07 2.877-14.385 1.438-5.754-1.438-11.508-2.877-15.824-8.632 5.753 18.701 30.208 21.577 46.033 14.386zM286.142 491.427c-.432-10.303-10.486-19.815-23.539-22.907 6.245 4.016 10.467 9.938 10.844 16.127.639 10.504-9.492 18.066-22.424 17.123-7.619-.556-14.613-3.965-19.353-8.779 3.905 9.637 15.261 17.348 28.097 18.176 14.959.964 26.879-7.731 26.375-19.74zM288.575 548.477c-.354-8.439-9.433-16.103-21.273-18.625 5.666 3.24 9.479 8.015 9.791 13.059.533 8.555-8.749 14.832-20.598 14.07-6.979-.448-13.388-3.285-17.713-7.292 3.492 8.052 13.863 14.524 25.615 15.177 13.694.759 24.592-6.554 24.178-16.389zM324.854 557.23c3.488 1.365 6.365 4.242 7.805 7.119 2.877 14.386-14.387 21.578-25.895 18.701-4.316-1.438-8.631-1.438-11.508-5.754 7.191 17.263 28.771 17.263 43.156 7.192 2.877-2.877 4.314-7.192 5.152-11.18.455-8.015-7.502-14.548-18.71-16.078zM271.11 580.907c5.166 2.812 8.609 7.013 8.837 11.571.387 7.736-8.303 13.664-19.313 13.133-6.487-.312-12.407-2.852-16.347-6.5 3.044 7.467 12.591 13.418 23.53 13.861 12.748.516 22.928-6.498 22.633-15.478-.254-7.703-8.505-14.447-19.34-16.587zM341.315 620.905c.303-7.749-7.147-13.998-17.502-15.488 3.09 2.089 5.969 3.526 7.406 6.403 2.877 8.633-5.754 17.264-14.385 18.702-7.193 1.438-15.824 0-21.578-5.755 2.37 3.951 5.611 7.135 9.299 9.448 9.367.555 18.69.639 27.945.274 1.062-.74 2.08-1.574 3.035-2.529 1.439-2.876 7.193-5.753 5.78-11.055zM277.152 630.997c1.823.296 3.634.585 5.438.864-2.573-1.52-5.562-2.658-8.811-3.297 1.245.715 2.372 1.534 3.373 2.433zM231.962 20.588c2.877-2.877 5.754-7.192 6.664-10.938.051-.484.072-.962.064-1.433-3.926.985-7.842 2.036-11.736 3.185-4.895 7.957-16.969 11.7-26.641 10.625-.92 0-1.836-.165-2.71-.459-.739.297-1.483.588-2.22.891 7.529 10.304 27.673 7.035 36.579-1.871zM159.028 61.74c12.242-1.998 23.941-11.765 25.658-21.645.811-4.658-.712-8.564-3.811-11.231-1.731.818-3.454 1.658-5.171 2.51.401 1.472.493 3.095.183 4.851-1.494 8.479-11.363 16.791-21.738 18.467-5.679.916-10.244-.42-12.967-3.247-.161.113-.326.222-.484.335 1.143 7.299 8.28 11.6 18.33 9.96zM172.982 131.355c2.877 15.824 21.578 17.262 33.085 11.508 5.754-2.877 8.631-7.192 12.947-10.069 4.316-4.315 4.316-8.631 5.672-13.668 1.338-10.65-6.2-18.172-17.272-18.965 1.53.986 4.407 2.424 5.847 5.301 5.754 11.508-4.316 23.017-14.386 27.332-5.754 2.877-11.508 2.877-17.262 2.877-2.877-.001-7.192-1.439-8.631-4.316zM214.698 79.568c5.754-2.877 10.07-7.193 14.387-11.509 2.877-2.876 4.316-5.753 3.356-7.998 1.134-8.632-5.985-14.927-16.374-15.624 2.947 2.044 4.385 3.482 5.824 6.359 2.877 10.07-4.314 17.262-12.947 21.578-8.631 2.878-17.261 4.316-24.454-1.438 2.877 12.948 20.139 12.948 30.208 8.632zM147.745 120.349c12.498-2.231 24.785-13.619 26.869-24.971 1.787-9.741-4.395-16.347-14.07-16.699 4.077 2.285 6.186 6.684 5.108 12.357-1.829 9.63-12.167 19.232-22.727 21.157-6.221 1.133-11.052-.686-13.568-4.393.4 8.953 7.665 14.462 18.388 12.549zM117.812 173.617c.626 10.595 8.09 17.616 18.876 16.033 6.285-.922 12.51-4.676 17.419-9.925 4.911-5.25 8.495-11.977 9.5-18.835 1.724-11.767-4.657-19.903-14.568-20.568 4.161 2.833 6.327 8.166 5.276 14.974-1.783 11.556-12.135 22.619-22.756 24.298-6.257.991-11.148-1.456-13.747-5.977zM195.999 309.732c4.314-2.877 7.191-5.754 10.068-8.631 4.316-5.754 5.754-12.947 6.137-19.789.261-15.308-8.928-27.514-21.306-30.106 16.608 12.493 9.415 42.702-10.723 48.456-5.755 1.438-11.509 0-15.823-2.877-2.879-1.438-2.879-5.754-5.756-7.193.001 18.701 21.58 28.771 37.403 20.14zM177.298 211.912c-5.754-1.438-11.508-2.877-14.385-7.192 1.439 17.262 20.139 23.016 34.524 15.824 5.753-2.877 8.63-7.193 12.946-10.07 2.877-5.754 7.193-11.508 6.386-18.181 1.188-13.131-7.01-22.855-18.802-24.238 18.171 16.526-.529 45.296-20.669 43.857zM135.581 253.63c-4.316 2.877-10.07 5.754-15.824 4.315-5.755-1.438-7.192-4.315-10.069-8.632 1.438 12.947 11.507 24.456 24.454 20.139 12.947-4.315 20.141-17.262 20.866-29.998.96-13.778-6.033-24.104-16.163-25.731 11.121 11.136 8.244 29.837-3.264 39.907zM131.253 354.202c12.565 1.044 22.641-11.3 22.105-27.874-.46-14.217-8.568-26.228-18.966-29.276 4.802 4.631 8.003 12.03 8.21 20.316.345 14.062-8.131 24.771-18.693 24.07-6.223-.415-11.713-4.504-15.259-10.469 2.754 12.475 11.824 22.339 22.603 23.233zM207.507 394.604c4.314-5.754 8.631-11.508 6.8-20.767-.815-14.545-10.995-27.401-23.659-31.208 13.981 10.257 15.42 33.273 1.036 43.344-4.316 2.877-10.07 1.438-14.386 1.438-7.191-1.438-12.945-5.754-15.824-11.509 4.316 18.702 28.77 34.526 46.033 18.702zM139.753 431.641c12.587 2.049 21.744-7.689 19.957-22.374-1.531-12.599-10.664-24.476-21.354-28.523 5.236 4.874 9.098 12.044 9.979 19.502 1.493 12.658-6.154 21.235-16.775 19.556-6.259-.992-12.088-5.207-16.125-10.951 3.724 11.452 13.52 21.034 24.318 22.79zM216.138 534.141c5.754-1.438 10.07-4.314 12.947-8.631 1.438-2.877 0-5.754.448-8.006-1.247-9.344-10.968-18.496-22.702-22.057 3.553 2.73 4.99 4.169 7.867 7.046 7.193 10.07 1.439 21.579-11.508 23.017-4.315 1.439-8.63-2.877-12.946-2.877-4.314-1.438-5.754-4.315-8.631-7.192 5.754 12.946 20.14 21.577 34.525 18.7zM203.19 475.162c10.07-1.438 20.141-10.07 18.286-21.41-1.321-11.879-11.641-23.089-24.062-27.117 10.092 8.248 17.283 22.633 7.214 32.703-10.068 8.631-25.893 4.315-34.522-7.192 5.753 12.946 18.701 23.016 33.084 23.016zM170.282 479.863c-1.824-10.416-11.228-20.828-21.951-24.971 5.394 4.465 9.488 10.698 10.592 16.926 1.872 10.569-5.438 17.307-15.997 15.384-6.221-1.134-12.146-5.005-16.354-10.104 4.025 9.918 13.979 18.465 24.646 20.358 12.432 2.21 21.19-5.45 19.064-17.593zM159.856 517.192c5.27 3.856 9.229 9.163 10.232 14.445 1.702 8.967-5.564 14.742-15.941 13.067-6.115-.987-11.93-4.385-16.039-8.863 3.816 8.713 13.504 16.217 23.936 17.812 12.157 1.858 20.822-4.798 18.939-15.086-1.613-8.826-10.664-17.677-21.127-21.375zM215.584 551.755c3.431 2.525 7.747 5.402 9.185 9.718 2.877 11.508-10.07 18.701-20.14 15.824-4.315-1.438-10.068-2.877-12.945-7.193 7.191 15.824 31.647 23.017 43.155 7.193 1.438-2.877 1.438-4.316 1.592-6.685-1.002-8.159-9.91-15.876-20.847-18.857zM189.648 590.3c-1.179-8.196-9.624-16.04-19.709-19.173 5.013 3.387 8.669 8.129 9.414 13.006 1.102 7.209-4.399 12.527-12.586 13.018 4.671 2.477 9.435 4.785 14.354 6.91 5.907-2.403 9.43-7.477 8.527-13.761zM222.339 601.569c2.43 1.621 6.746 4.498 8.184 7.374 1.237 4.946.073 9.35-2.443 12.547 3.997 1.207 8.051 2.332 12.178 3.345.514-1.666.727-3.497 1.159-5.697-.67-7.909-8.82-15.038-19.078-17.569zM116.88 145.74c1.438-2.877 1.438-7.192 3.161-10.474 1.913-10.609-3.378-17.813-12.06-18.215 11.775 11.427.267 28.688-11.241 34.443-4.315 1.438-7.191 1.438-11.507 1.438-2.877 0-4.316-2.877-5.754-4.315 1.438 2.877 1.438 5.754 1.438 7.192 11.508 14.386 28.771 1.439 35.963-10.069zM98.18 98.269c15.822 2.877 30.208-8.631 33.544-23.495 1.128-5.733-.619-10.361-4.258-13.104-1.162.915-2.326 1.833-3.486 2.761.045.244.092.485.092.752 1.439 11.508-7.191 20.139-15.823 24.455-4.314 1.439-7.191 1.439-11.508 1.439-1.114 0-2.222-.222-3.169-.654-.801.783-1.57 1.58-2.357 2.367 1.05 2.67 3.473 4.606 6.965 5.479zM82.034 112.599c.661-3.675.393-6.931-.619-9.604-2.327 2.541-4.586 5.117-6.809 7.712-1.66 6.361-6.504 12.348-12.438 15.513-2.539 3.382-5.017 6.799-7.404 10.271 13.153 2.998 23.52-11.689 27.27-23.892zM50.545 202.997c9.716-1.452 19.171-13.453 20.985-26.352 1.559-11.063-3.195-18.913-10.977-19.704 3.246 2.805 4.854 7.945 3.943 14.367-1.544 10.901-9.6 21.035-17.922 22.343-4.903.771-8.846-1.646-11.008-5.951.632 9.875 6.642 16.545 14.979 15.297zM82.356 299.662c-2.877 1.438-7.193 0-10.07-1.438s-4.316-4.315-5.754-7.192c0 12.946 12.947 25.893 25.893 18.701 8.632-5.754 12.946-15.824 11.67-25.896.251-13.233-5.974-23.758-14.584-25.927 11.546 12.981 7.229 34.56-7.155 41.752zM3.237 308.293c7.192 4.315 14.384 0 18.7-5.754 4.315-7.192 2.877-15.824 3.07-22.853-1.32-8.534-5.757-14.952-11.551-16.617 9.918 10.7 5.604 33.716-8.781 36.593-1.577 0-3.151-.579-4.657-1.45.027 2.445.086 4.891.146 7.336.929.96 1.929 1.889 3.073 2.745zM72.286 226.297c5.754 8.631 15.824 10.07 23.017 4.315 8.631-7.192 12.945-15.824 14.12-25.5 1.492-12.116-3.99-20.919-12.57-21.934 11.396 14.348 1.327 40.242-15.936 40.242-2.877-1.438-10.07 0-10.07-7.193 0 2.878 0 7.193 1.439 10.07zM45.42 274.072c9.43-.433 17.792-12.347 18.685-26.407.766-12.065-4.306-21.271-11.889-22.838 3.288 3.394 5.134 9.25 4.654 16.237-.816 11.861-7.982 22.012-16.016 22.52-4.734.301-8.729-2.696-11.096-7.524 1.241 10.627 7.573 18.381 15.662 18.012zM53.585 345.695c7.191-4.316 10.07-14.386 9.159-23.102-.368-12.248-6.255-22.549-13.916-25.171 7.634 10.871 9.073 26.694-.997 36.764-5.754 4.315-15.824 0-18.701-7.192 0 11.508 12.947 24.455 24.455 18.701zM96.74 385.974c7.193-2.877 10.07-12.947 9.712-21.703-.945-12.864-8.294-24.221-17.186-27.611 10.351 10.474 10.351 26.298 3.158 36.367-7.191 7.193-18.699 1.438-23.016-7.192 2.878 12.946 14.386 25.893 27.332 20.139zM60.776 416.183c7.193-2.878 8.633-12.946 7.289-20.46-1.333-11.486-8.207-22.057-16.228-25.542 7.501 10.039 11.817 30.179-1.13 35.933-7.193 2.877-12.947-5.754-17.263-10.07 2.879 12.946 14.387 23.016 27.332 20.139zM127.218 501.89c-1.908-9.661-10.445-19.375-19.959-23.374 2.429 2.4 5.306 3.838 6.743 6.715 4.316 7.193 5.755 18.701-2.876 23.018-8.632 2.877-17.263-2.877-23.016-10.07 4.314 12.947 17.261 23.017 31.646 20.14 2.877 0 4.314-2.877 5.754-4.315 2.878-4.317 1.44-7.194 1.708-12.114zM112.564 453.584c4.315-4.316 2.877-10.07 2.974-15.455-1.771-11.383-10.012-22.266-19.289-26.304 9.122 10.111 14.877 27.374 1.931 34.565-2.877 1.439-5.755 0-8.631 0-4.315-2.877-10.069-5.754-12.948-10.068 5.755 14.385 21.579 30.208 35.963 17.262zM59.948 438.439c4.309 4.207 7.637 10.189 8.637 16.295 1.697 10.363-4.111 17.213-12.869 15.598-5.16-.951-10.121-4.592-13.613-9.499 3.268 9.752 11.635 17.989 20.512 19.64 10.35 1.927 17.227-5.875 15.169-17.879-1.767-10.297-9.356-20.326-17.836-24.155zM88.48 522.643c-1.652-9.352-9.503-18.523-18.372-22.186 4.504 3.906 7.953 9.386 8.909 14.953.688 4.01-.059 7.453-1.846 9.994 2.804 3.232 5.673 6.368 8.583 9.446 2.499-2.973 3.61-7.204 2.726-12.207zM135.581 568.666c1.438-2.877 2.877-5.754 2.515-10.682-1.614-8.777-9.956-17.398-19.521-20.959 4.06 4.309 8.376 8.624 9.813 14.378 2.152 7.531-3.742 11.843-10.462 12.937 3.683 2.938 7.479 5.824 11.364 8.682.178-.016.359-.021.535-.041 2.879-.001 4.317-2.877 5.756-4.315zM26.253 227.736c1.438-4.315 4.315-7.192 2.906-11.301.189-2.075.179-4.056-.004-5.901-1.154-4.583-2.309-10.9-6.966-13.376-.499 1.257-.978 2.515-1.458 3.773 4.752 10.604-.33 24.764-10.271 29.532-1.219 3.827-2.221 7.652-3.074 11.479 7.011 1.882 15.527-5.296 18.867-14.206zM21.938 374.465c4.315-4.315 5.754-11.508 5.169-18.34-.129-2.121-.443-4.199-.907-6.189-2.824-7.118-5.7-14.311-12.893-17.188 8.631 8.631 10.068 30.209-2.877 34.524-2.426.486-4.685.304-6.728-.355.421 2.584.865 5.166 1.349 7.741 5.032 3.764 11.138 4.836 16.887-.193zM33.505 423.424c-.243-1.99-.678-3.957-1.27-5.866-3.105-7.13-7.421-14.321-14.614-18.638 7.193 7.193 11.509 23.017 2.878 31.647-.06.03-.118.051-.177.079 1.501 3.953 3.07 7.857 4.731 11.719 1.896-.599 3.756-1.629 5.515-3.166 2.877-4.316 4.316-10.07 2.937-15.775z"/>
</svg>
